<svg width="90" height="18" viewBox="0 0 90 18" fill="none" xmlns="http://www.w3.org/2000/svg">
<path fill-rule="evenodd" clip-rule="evenodd" d="M73.5485 0.593416C72.7573 -0.197805 71.4755 -0.197805 70.6861 0.593416C69.8949 1.38464 69.8949 2.66645 70.6861 3.45583C70.9103 3.67866 71.3982 4.16723 71.7418 4.51126L72.0454 4.81511C72.0841 4.85384 72.1487 4.85384 72.1892 4.81511C72.3662 4.6395 72.8318 4.17334 73.1903 3.81433L73.192 3.81271L73.5485 3.45583C74.3379 2.66461 74.3379 1.38279 73.5485 0.593416ZM0 16.9158V2.48385H9.62006V5.30385H3.37883V7.89514H9.31022V10.5694H3.37883V16.9158H0ZM14.7934 6.02869H11.3721V16.914H14.7934V6.02869ZM16.8683 6.02869V16.914H20.2895V10.5694C20.2895 9.98848 20.4629 9.4776 20.8078 9.03496C21.1527 8.59232 21.6433 8.371 22.2796 8.371C22.8882 8.371 23.3548 8.58125 23.6794 9.0036C24.004 9.42596 24.1663 10.0032 24.1663 10.7354V16.914H27.5876V10.1121C27.5876 8.82655 27.2464 7.79741 26.5621 7.02279C25.8779 6.24816 24.9557 5.86085 23.7938 5.86085C22.9362 5.86085 22.1929 6.03791 21.564 6.39018C20.9351 6.74245 20.4555 7.2312 20.1235 7.85274L19.8948 6.02869H16.8683ZM34.906 17.0394C34.159 17.0394 33.4379 16.925 32.7389 16.6982C32.0417 16.4695 31.4294 16.1246 30.9038 15.6617C30.3781 15.1987 29.9558 14.6141 29.6386 13.9095C29.3213 13.205 29.1609 12.3824 29.1609 11.4418C29.1609 10.5713 29.3029 9.78928 29.5851 9.09765C29.8691 8.40603 30.2564 7.82322 30.747 7.34553C31.2376 6.86785 31.8186 6.50267 32.4881 6.24631C33.1594 5.98994 33.8676 5.86268 34.6127 5.86268C35.3173 5.86268 35.9462 5.93461 36.4995 6.08032C37.0528 6.22602 37.5231 6.43074 37.9086 6.69264V9.18065C37.5766 9.00175 37.1856 8.84867 36.7374 8.7251C36.2874 8.60153 35.8152 8.53882 35.3173 8.53882C34.4873 8.53882 33.8068 8.78043 33.2756 9.26364C32.7426 9.74686 32.477 10.4662 32.477 11.4197C32.477 12.4156 32.7739 13.1607 33.3678 13.6587C33.9617 14.1567 34.6957 14.4057 35.5663 14.4057C35.9941 14.4057 36.4054 14.3466 36.8001 14.2286C37.1948 14.1106 37.6043 13.9427 38.034 13.7196V16.25C37.619 16.499 37.1598 16.6926 36.6544 16.831C36.1546 16.9693 35.5699 17.0394 34.906 17.0394ZM50.937 6.02867V16.914H54.3361V12.2496C54.3361 11.1578 54.5648 10.3795 55.0203 9.91654C55.4759 9.45361 55.9886 9.22122 56.5548 9.22122C56.8591 9.22122 57.1432 9.24889 57.4051 9.30422C57.6688 9.35955 57.9159 9.43701 58.152 9.53292V6.02867C58.0137 5.97519 57.868 5.93277 57.7167 5.9051C57.5637 5.87744 57.3774 5.86268 57.1561 5.86268C56.6175 5.86268 56.0771 6.05081 55.5386 6.42336C55 6.79592 54.5703 7.39717 54.2531 8.22713L53.9635 6.02867H50.937ZM73.8363 6.02869H70.3947V16.914H73.8363V6.02869ZM76.055 15.1526V16.9158H84.598V14.4057H79.9742L84.4523 8.06115V6.02869H76.1177V8.39313H80.7839L76.055 15.1526ZM49.2032 12.5152V15.2356H49.2014V16.9158H46.2154L46.0088 15.7133C45.7045 16.1264 45.2969 16.4529 44.786 16.6871C44.2752 16.9213 43.7016 17.0394 43.0653 17.0394C42.0269 17.0394 41.1564 16.7553 40.4518 16.1891C39.7473 15.6229 39.395 14.7874 39.395 13.6808C39.4098 12.5761 39.775 11.7295 40.4943 11.1412C41.2136 10.5528 42.0915 10.2596 43.128 10.2596C43.6813 10.2596 44.1958 10.3389 44.6735 10.4975C45.1494 10.658 45.5404 10.8885 45.8447 11.1928V10.5086C45.8447 9.7487 45.6123 9.20278 45.1494 8.8708C44.6864 8.53882 44.0612 8.37283 43.2737 8.37283C42.7351 8.37283 42.2058 8.42816 41.6875 8.53882C41.1693 8.64948 40.723 8.77305 40.3504 8.91138V6.62993C40.7506 6.40861 41.3039 6.22602 42.0085 6.08032C42.713 5.93461 43.5079 5.86268 44.3932 5.86268C45.9959 5.86268 47.1984 6.24631 48.0007 7.01355C48.803 7.7808 49.2032 8.91138 49.2032 10.4034V12.5152ZM44.2051 15.2577C44.716 15.2577 45.1494 15.0991 45.5016 14.7801C45.8539 14.461 46.031 14.0681 46.0291 13.5978C46.0291 13.1275 45.8594 12.7384 45.5219 12.4267C45.1844 12.115 44.7584 11.9601 44.2475 11.9601C43.7071 11.9601 43.2681 12.115 42.9306 12.4267C42.5913 12.7365 42.4216 13.1275 42.4216 13.5978C42.4216 14.0681 42.5802 14.4628 42.8993 14.7801C43.2165 15.0991 43.6518 15.2577 44.2051 15.2577ZM68.5301 15.2356V12.5152V10.4034C68.5301 8.91138 68.1298 7.7808 67.3275 7.01355C66.5253 6.24631 65.3227 5.86268 63.72 5.86268C62.8347 5.86268 62.0398 5.93461 61.3353 6.08032C60.6307 6.22602 60.0774 6.40861 59.6772 6.62993V8.91138C60.0498 8.77305 60.4961 8.64948 61.0144 8.53882C61.5326 8.42816 62.062 8.37283 62.6005 8.37283C63.388 8.37283 64.0133 8.53882 64.4762 8.8708C64.9391 9.20278 65.1715 9.7487 65.1715 10.5086V11.1928C64.8672 10.8885 64.4762 10.658 64.0004 10.4975C63.5227 10.3389 63.0081 10.2596 62.4548 10.2596C61.4183 10.2596 60.5404 10.5528 59.8211 11.1412C59.1018 11.7295 58.7348 12.5761 58.7219 13.6808C58.7219 14.7874 59.0741 15.6229 59.7787 16.1891C60.4832 16.7553 61.3537 17.0394 62.3903 17.0394C63.0265 17.0394 63.6001 16.9213 64.111 16.6871C64.6219 16.4529 65.0295 16.1264 65.3338 15.7133L65.5404 16.9158H68.5264V15.2356H68.5301ZM64.8285 14.7801C64.4762 15.0991 64.0446 15.2577 63.5319 15.2577C62.9786 15.2577 62.5433 15.0991 62.2261 14.7801C61.907 14.4628 61.7484 14.0681 61.7484 13.5978C61.7484 13.1275 61.9181 12.7365 62.2575 12.4267C62.5968 12.115 63.0339 11.9601 63.5743 11.9601C64.0852 11.9601 64.5112 12.115 64.8488 12.4267C65.1881 12.7384 65.3559 13.1275 65.3559 13.5978C65.3578 14.0681 65.1807 14.461 64.8285 14.7801ZM89.8174 3.93905C89.6957 3.72695 89.5297 3.56096 89.3176 3.43923C89.1055 3.31751 88.8713 3.25664 88.6131 3.25664C88.3548 3.25664 88.1206 3.31751 87.9085 3.43923C87.6964 3.56096 87.5304 3.72695 87.4087 3.93721C87.287 4.14746 87.2261 4.38169 87.2261 4.6399C87.2261 4.89811 87.287 5.13418 87.4087 5.34444C87.5304 5.55653 87.6983 5.72253 87.9104 5.8461C88.1225 5.96967 88.3567 6.03053 88.6131 6.03053C88.8694 6.03053 89.1036 5.96967 89.3157 5.8461C89.5278 5.72253 89.6957 5.55653 89.8174 5.34444C89.9391 5.13418 90 4.89811 90 4.6399C90 4.38354 89.9391 4.15115 89.8174 3.93905ZM89.6569 5.2596C89.5518 5.44403 89.408 5.58973 89.2254 5.6967C89.0428 5.80368 88.8381 5.85716 88.6131 5.85532C88.388 5.85532 88.1833 5.80368 87.9989 5.6967C87.8145 5.59158 87.6706 5.44587 87.5655 5.2596C87.4603 5.07516 87.4087 4.8686 87.4087 4.6399C87.4087 4.41489 87.4603 4.21017 87.5655 4.02573C87.6706 3.8413 87.8145 3.69744 87.9989 3.59047C88.1833 3.48534 88.388 3.43186 88.6131 3.43186C88.8381 3.43186 89.0428 3.4835 89.2254 3.59047C89.408 3.6956 89.5518 3.8413 89.6569 4.02573C89.7621 4.21017 89.8137 4.41489 89.8137 4.6399C89.8137 4.86675 89.7621 5.07332 89.6569 5.2596ZM89.384 5.46247L89.0852 4.95897C89.0243 4.86122 88.9506 4.80036 88.8676 4.78007C89.0004 4.75978 89.1018 4.70814 89.1756 4.62514C89.2475 4.5403 89.2844 4.43702 89.2844 4.31161C89.2844 4.15668 89.2346 4.03864 89.1368 3.95196C89.0372 3.86528 88.8971 3.82286 88.7163 3.82286H88.0321V5.46247H88.3161V4.80589H88.519C88.5762 4.80589 88.6223 4.81695 88.6573 4.8354C88.6924 4.85384 88.7256 4.88888 88.7569 4.93684L89.0649 5.46247H89.384ZM89.0022 4.32083C89.0022 4.40936 88.9764 4.47575 88.9247 4.51817C88.8731 4.56059 88.792 4.58272 88.6831 4.58272H88.318V4.0534H88.6831C88.792 4.0534 88.8731 4.07369 88.9247 4.11611C88.9764 4.15668 89.0022 4.22677 89.0022 4.32083Z" fill="#077BE7"/>
</svg>
